<svg width="20" height="20" viewBox="0 0 20 20" fill="none" xmlns="http://www.w3.org/2000/svg">
<path d="M10 0C4.48837 0 0 4.48837 0 10C0 15.5116 4.48837 20 10 20C15.5116 20 20 15.5116 20 10C19.9998 4.48837 15.5116 0 10 0V0ZM14.6512 8.18605L9.06977 13.7674C8.8837 13.9535 8.65125 14.0465 8.4186 14.0465C8.18598 14.0465 7.95353 13.9535 7.76744 13.7674L4.88351 10.9302C4.51138 10.5581 4.51138 9.9767 4.88351 9.60457C5.25564 9.23244 5.83704 9.23244 6.20918 9.60457L8.39527 11.7907L13.3255 6.86042C13.6976 6.48829 14.279 6.48829 14.6512 6.86042C14.9999 7.23255 14.9999 7.81395 14.6512 8.18609V8.18605Z" fill="#B6A0F3"/>
</svg>
